<?xml version="1.0" encoding="utf-8"?>
<svg viewBox="0 0 3400 2000" xmlns="http://www.w3.org/2000/svg" xmlns:bx="https://boxy-svg.com">
  <defs>
    <style>.cls-1{fill:#d1d5db;}.cls-2{fill:#f4f4f4;}.cls-3{fill:#333;}.cls-4{opacity:0.7;}.cls-5{fill:#eaeaea;}.cls-6{fill:#dfdfdf;}.cls-7{fill:#e9e9e9;}.cls-8{fill:#ea580c;}.cls-9{fill:#fff;}.cls-10{fill:#151f2c;}.cls-11{fill:#424140;}.cls-12{fill:#c66439;}.cls-13{fill:#ebf3fa;}.cls-14{fill:#ee805f;}.cls-15{fill:#545453;}.cls-16{fill:#2f2d2c;}.cls-17{fill:#cbcac5;}.cls-18{fill:#959593;}.cls-19{fill:#de6b4d;}.cls-20{fill:#384152;}.cls-21{fill:#b04209;}.cls-22{fill:#a7a7a4;}.cls-23{fill:#b8c0c7;}</style>
  </defs>
  <path class="cls-1" d="M469.63,1357.39l46.3-5.22a10.32,10.32,0,0,1,9.72,4.65q4,6.24,8.62,12.23a173.37,173.37,0,0,0,18.33,20.47,10.18,10.18,0,0,1,2.51,11.21l-17.75,45.35a10,10,0,0,0,4.93,12.68l39.89,19.76a9.89,9.89,0,0,0,12.68-3.52L619,1437.21a9.94,9.94,0,0,1,11.12-4.3,180,180,0,0,0,56.48,5.62,10.24,10.24,0,0,1,10.26,7.12l8.18,26a10.35,10.35,0,0,0,11.77,7l43.32-8.76a9.15,9.15,0,0,0,2.51-.83,10,10,0,0,0,5.54-10.15l-3.86-34.59-.95-8.43a177.19,177.19,0,0,0,21-13.88A180.35,180.35,0,0,0,809,1379.2a9.91,9.91,0,0,1,11.08-2.67l36.51,14.34a10.29,10.29,0,0,0,13-5l15.11-30.5,4.31-8.75a10.41,10.41,0,0,0-3.71-13.43L853.73,1313a9.93,9.93,0,0,1-4.45-10.81,177.94,177.94,0,0,0,4.81-37.91,31.47,31.47,0,0,0,.1-3.21,5.5,5.5,0,0,1,.07-1.08,10.15,10.15,0,0,1,7.16-8.7l42.23-13.37a7.61,7.61,0,0,0,1.38-.54,10.35,10.35,0,0,0,5.57-11.2l-8.67-43.2a10.27,10.27,0,0,0-11.21-8.18l-48.3,5.46a9.94,9.94,0,0,1-10-5.23,180.85,180.85,0,0,0-15.12-23.13q-4.55-5.94-9.49-11.37a10.5,10.5,0,0,1-2-10.85l17.06-43.58a10,10,0,0,0-4.87-12.61L778.56,1054a10.46,10.46,0,0,0-13.48,3.74L746,1087.61a10.25,10.25,0,0,1-11.94,4.23,179.42,179.42,0,0,0-54.48-9.78,10.22,10.22,0,0,1-9.61-7.18l-12-38.06a10.55,10.55,0,0,0-12.07-7.14l-43.05,8.62a10.09,10.09,0,0,0-8.06,11l.21,2,4.5,40.19a10.32,10.32,0,0,1-5.58,10.36l0,0a178.32,178.32,0,0,0-26.71,17c-4.56,3.49-8.85,7.17-13,11a10.12,10.12,0,0,1-10.65,2.08l-37.06-14.56a10.46,10.46,0,0,0-13.21,5.07l-19.43,39.32a11.52,11.52,0,0,0-1,3.46,10.43,10.43,0,0,0,4.67,9.75l25.26,16.06a10.39,10.39,0,0,1,4.71,9.07,10.91,10.91,0,0,1-.52,2.83,179,179,0,0,0-9.09,70.16,10.07,10.07,0,0,1-5.41,9.66,10.33,10.33,0,0,1-1.6.66l-34.2,10.79a10.23,10.23,0,0,0-6.95,11.74l.19,1,8.41,42.11A10.44,10.44,0,0,0,469.63,1357.39Zm296.22-131.48a119.45,119.45,0,0,1,6.28,21.38c2.84,14.55-.11,37.52-6.69,50.83-.7,1.43-1.42,2.82-2.15,4.21-45.3,84.1-164.06,67.37-183.62-27.52-2.53-12.4-.95-30.47,3.48-44.32a64,64,0,0,1,3.55-8.74,110.4,110.4,0,0,1,22.1-30.41C657.57,1144.5,739.05,1159.83,765.85,1225.91Z" style=""/>
  <path class="cls-1" d="M2500.76,569.65l46.3-5.22a10.34,10.34,0,0,1,9.72,4.65q4,6.25,8.61,12.23a173.55,173.55,0,0,0,18.34,20.48,10.16,10.16,0,0,1,2.51,11.2l-17.75,45.35a10,10,0,0,0,4.92,12.68l39.9,19.76a9.88,9.88,0,0,0,12.68-3.51l24.12-37.8a9.94,9.94,0,0,1,11.12-4.3,180,180,0,0,0,56.48,5.62,10.25,10.25,0,0,1,10.26,7.12l8.18,26a10.35,10.35,0,0,0,11.77,7l43.32-8.76a9.08,9.08,0,0,0,2.5-.83,9.94,9.94,0,0,0,5.55-10.15l-3.86-34.59-1-8.43a178.45,178.45,0,0,0,21-13.87,180.37,180.37,0,0,0,24.65-22.83,9.93,9.93,0,0,1,11.09-2.67l36.51,14.34a10.29,10.29,0,0,0,13-5l15.11-30.5,4.31-8.75a10.44,10.44,0,0,0-3.71-13.43l-31.57-20.19a9.91,9.91,0,0,1-4.45-10.81,179.14,179.14,0,0,0,4.81-37.91,31.47,31.47,0,0,0,.1-3.21,4.87,4.87,0,0,1,.07-1.08,10.15,10.15,0,0,1,7.16-8.7l42.23-13.37a7.51,7.51,0,0,0,1.37-.54,10.33,10.33,0,0,0,5.57-11.2l-8.66-43.2a10.29,10.29,0,0,0-11.22-8.18l-48.29,5.46a9.94,9.94,0,0,1-10-5.23,180.85,180.85,0,0,0-15.12-23.13q-4.55-5.94-9.49-11.37a10.48,10.48,0,0,1-2-10.85L2854,298.33a10,10,0,0,0-4.86-12.61l-39.5-19.49a10.46,10.46,0,0,0-13.47,3.74l-19.09,29.9a10.26,10.26,0,0,1-11.95,4.23,179.3,179.3,0,0,0-54.47-9.78,10.21,10.21,0,0,1-9.61-7.18l-12-38.06a10.55,10.55,0,0,0-12.08-7.14l-43.05,8.62a10.08,10.08,0,0,0-8,11.05l.21,2,4.49,40.19a10.31,10.31,0,0,1-5.57,10.36l0,0a178.82,178.82,0,0,0-26.71,17c-4.55,3.5-8.85,7.17-13,11a10.12,10.12,0,0,1-10.65,2.08l-37.06-14.56a10.45,10.45,0,0,0-13.21,5.08l-19.43,39.32a11.1,11.1,0,0,0-1,3.45,10.41,10.41,0,0,0,4.66,9.76l25.26,16.05a10.4,10.4,0,0,1,4.72,9.07,10.91,10.91,0,0,1-.52,2.83,178.86,178.86,0,0,0-9.09,70.16,10,10,0,0,1-7,10.32l-34.2,10.79a10.25,10.25,0,0,0-6.95,11.74l.2,1,8.41,42.11A10.43,10.43,0,0,0,2500.76,569.65ZM2797,438.17a120.52,120.52,0,0,1,6.28,21.38c2.83,14.56-.12,37.52-6.69,50.83-.7,1.43-1.43,2.82-2.15,4.21-45.31,84.1-164.06,67.38-183.62-27.52-2.53-12.4-1-30.47,3.48-44.32a64,64,0,0,1,3.54-8.74,111,111,0,0,1,22.1-30.41C2688.7,356.76,2770.18,372.09,2797,438.17Z" style=""/>
  <rect class="cls-2" x="766.06" y="508.52" width="1974.68" height="1159.25" style="fill: rgb(216, 218, 222);"/>
  <rect class="cls-3" x="766.06" y="501.52" width="1974.68" height="974.05" style="fill: rgb(21, 31, 44);"/>
  <path class="cls-2" d="M 2011.83 1857.62 L 2011.83 1885.78 L 1432 1885.78 L 1432 1857.62 C 1472.645 1857.62 1506.451 1826.36 1509.63 1785.84 C 1509.78 1783.84 1509.86 1781.84 1509.86 1779.75 L 1509.86 1668.75 L 1934 1668.75 L 1934 1779.75 C 1934 1781.75 1934.08 1783.83 1934.23 1785.84 C 1937.395 1826.366 1971.21 1857.634 2011.86 1857.62 L 2011.83 1857.62 Z" style="fill: rgb(156, 163, 175);"/>
  <g class="cls-4" style="" transform="matrix(1, 0, 0, 1.737078, 0, -1241.203369)">
    <rect class="cls-5" x="1509.87" y="1660.76" width="424.09" height="23.19" style="fill: rgba(100, 100, 100, 0);"/>
  </g>
  <g class="cls-4">
    <path class="cls-6" d="M 2011.83 1856.62 L 1432 1856.62 C 1472.645 1856.62 1506.451 1825.36 1509.63 1784.84 L 1934.2 1784.84 C 1937.365 1825.366 1971.18 1856.634 2011.83 1856.62 Z" style="paint-order: fill; fill: rgb(242, 242, 242);"/>
  </g>
  <rect class="cls-1" x="791.66" y="527.17" width="1919.59" height="911.67" style="fill: rgba(112, 112, 112, 0.81);"/>
  <path class="cls-7" d="M 664.05 978.81 L 686.6 976.27 C 688.48 976.066 690.315 976.941 691.34 978.53 C 692.64 980.53 694.04 982.53 695.53 984.53 C 698.24 988.092 701.226 991.435 704.46 994.53 C 705.946 995.929 706.432 998.09 705.69 999.99 L 697 1022 C 696.058 1024.371 697.105 1027.067 699.4 1028.18 L 718.83 1037.8 C 721.023 1038.876 723.674 1038.141 725 1036.09 L 736.75 1017.68 C 737.89 1015.86 740.093 1015.009 742.16 1015.59 C 751.128 1017.951 760.413 1018.876 769.67 1018.33 C 771.927 1018.221 773.977 1019.639 774.67 1021.79 L 778.67 1034.47 C 779.437 1036.896 781.903 1038.36 784.4 1037.87 L 805.5 1033.6 C 805.924 1033.526 806.335 1033.391 806.72 1033.2 C 808.604 1032.29 809.693 1030.275 809.42 1028.2 L 807.54 1011.36 L 807.07 1007.25 C 810.638 1005.244 814.06 1002.988 817.31 1000.5 C 821.647 997.175 825.664 993.452 829.31 989.38 C 830.659 987.857 832.816 987.338 834.71 988.08 L 852.49 995.08 C 854.916 996.04 857.672 994.973 858.82 992.63 L 866.18 977.78 L 868.27 973.52 C 869.431 971.201 868.655 968.379 866.47 966.98 L 851.09 957.15 C 849.301 956.05 848.428 953.919 848.93 951.88 C 850.366 945.828 851.15 939.639 851.27 933.42 C 851.32 932.88 851.32 932.42 851.32 931.85 C 851.3 931.677 851.3 931.503 851.32 931.33 C 851.534 929.347 852.905 927.681 854.81 927.09 L 875.37 920.58 C 875.601 920.513 875.825 920.426 876.04 920.32 C 878.068 919.315 879.179 917.084 878.76 914.86 L 874.54 893.86 C 874.036 891.31 871.663 889.572 869.08 889.86 L 845.56 892.52 C 843.568 892.759 841.635 891.745 840.7 889.97 C 838.538 886.034 836.077 882.27 833.34 878.71 C 831.86 876.78 830.34 874.94 828.72 873.17 C 827.409 871.744 827.021 869.697 827.72 867.89 L 836.03 846.66 C 836.947 844.308 835.919 841.646 833.66 840.52 L 814.5 831 C 812.17 829.84 809.34 830.625 807.94 832.82 L 798.64 847.38 C 797.407 849.321 795.01 850.171 792.83 849.44 C 784.285 846.494 775.336 844.888 766.3 844.68 C 764.15 844.641 762.265 843.232 761.62 841.18 L 755.76 822.65 C 754.962 820.17 752.438 818.676 749.88 819.17 L 728.88 823.37 C 726.372 823.869 724.666 826.209 724.96 828.75 L 725.06 829.75 L 727.25 849.33 C 727.475 851.398 726.396 853.389 724.54 854.33 C 719.971 856.694 715.621 859.458 711.54 862.59 C 709.32 864.29 707.23 866.08 705.2 867.95 C 703.813 869.259 701.795 869.649 700.02 868.95 L 682 862 C 679.538 861.022 676.737 862.096 675.56 864.47 L 666.1 883.62 C 665.849 884.151 665.683 884.718 665.61 885.3 C 665.426 887.182 666.3 889.011 667.88 890.05 L 680.19 897.87 C 682.099 899.118 682.922 901.5 682.19 903.66 C 678.458 914.643 676.952 926.259 677.76 937.83 C 677.904 939.785 676.87 941.637 675.13 942.54 C 674.877 942.663 674.616 942.77 674.35 942.86 L 657.69 948.12 C 655.281 948.894 653.829 951.346 654.31 953.83 L 654.4 954.32 L 658.5 974.83 C 659.049 977.388 661.451 979.11 664.05 978.81 Z M 808.31 914.81 C 809.656 918.176 810.684 921.662 811.38 925.22 C 812.75 932.31 811.32 943.49 808.12 949.97 C 807.78 950.67 807.42 951.35 807.12 951.97 C 785.06 992.97 727.22 984.79 717.7 938.57 C 716.46 932.57 717.23 923.73 719.39 916.99 C 719.858 915.528 720.437 914.104 721.12 912.73 C 723.832 907.214 727.472 902.204 731.88 897.92 C 755.58 875.13 795.26 882.6 808.31 914.78 L 808.31 914.81 Z" style="fill: rgb(209, 213, 219);"/>
  <path class="cls-7" d="M 1516.54 641.28 C 1516.629 654.228 1511.634 666.695 1502.63 676 C 1493.816 685.21 1481.648 690.459 1468.9 690.55 L 911.21 693.09 C 882.74 693.22 859.35 671.27 859.21 644.31 C 859.206 631.175 864.635 618.623 874.21 609.63 C 884.063 600.241 897.15 595.003 910.76 595 L 1468.45 592.45 C 1494.78 592.37 1516.42 614.33 1516.54 641.28 Z" style="fill: rgb(249, 250, 251);"/>
  <path class="cls-8" d="M1578.54,641.28A49.44,49.44,0,0,1,1564.63,676a47.15,47.15,0,0,1-33.73,14.55L1430,691l-.45-98,100.92-.46C1556.78,592.37,1578.42,614.33,1578.54,641.28Z"/>
  <path class="cls-9" d="M 1516.267 659.356 C 1497.022 659.449 1483.528 638.417 1493.07 621.704 C 1494.764 618.737 1497.048 616.149 1499.781 614.099 C 1515.177 602.552 1538.629 610.804 1540.931 629.91 C 1542.718 644.748 1531.211 659.284 1516.267 659.356 Z M 1503.455 618.679 C 1490.597 628.299 1493.188 645.12 1507.948 651.445 C 1522.708 657.77 1535.4 645.48 1533.498 629.535 C 1533.065 625.905 1532.605 625.108 1530.418 622.179 C 1523.514 612.953 1512.688 611.785 1503.455 618.679 Z" style="fill: rgb(249, 250, 251);" transform="matrix(0.882947, 0.469472, -0.469472, 0.882947, 475.064117, -636.630371)" bx:origin="0.48919 0.50575"/>
  <rect class="cls-9" x="1480.51" y="641.29" width="4.11" height="34.09" transform="matrix(0.598744, 0.80094, -0.80094, 0.598744, 1122.290039, -923.309998)"/>
  <path class="cls-9" d="M 1459.43 675.63 C 1458.208 674.008 1458.54 671.701 1460.17 670.49 L 1493.071 648.233 C 1494.696 647.023 1498.768 652.359 1499.985 651.125 C 1501.202 649.891 1500.727 653.027 1499.101 654.245 L 1465.391 677.201 C 1463.766 678.421 1460.638 677.263 1459.43 675.63 Z" style="fill: rgb(249, 250, 251);"/>
  <rect class="cls-8" x="962.19" y="1136.96" width="157.01" height="13.32" rx="2.97"/>
  <path class="cls-10" d="M1038.77,1196.08h-72a4.54,4.54,0,0,1-4.54-4.54h0a4.55,4.55,0,0,1,4.54-4.55h72a4.55,4.55,0,0,1,4.55,4.55h0A4.55,4.55,0,0,1,1038.77,1196.08Z"/>
  <rect class="cls-10" x="962.19" y="1167.93" width="135.98" height="9.09" rx="2.28"/>
  <rect class="cls-10" x="1110.56" y="1167.93" width="126.97" height="9.09" rx="2.2"/>
  <path class="cls-10" d="M1128.62,1196.08h-72a4.55,4.55,0,0,1-4.55-4.54h0a4.55,4.55,0,0,1,4.55-4.55h72a4.55,4.55,0,0,1,4.55,4.55h0A4.54,4.54,0,0,1,1128.62,1196.08Z"/>
  <rect class="cls-8" x="1139.98" y="1136.96" width="157.01" height="13.32" rx="2.97"/>
  <rect class="cls-8" x="962.19" y="1237.26" width="157.01" height="13.32" rx="2.97"/>
  <path class="cls-10" d="M1038.77,1296.38h-72a4.54,4.54,0,0,1-4.54-4.54h0a4.55,4.55,0,0,1,4.54-4.55h72a4.55,4.55,0,0,1,4.55,4.55h0A4.55,4.55,0,0,1,1038.77,1296.38Z"/>
  <rect class="cls-10" x="962.19" y="1268.23" width="135.98" height="9.09" rx="2.28"/>
  <rect class="cls-10" x="1110.56" y="1268.23" width="126.97" height="9.09" rx="2.2"/>
  <path class="cls-10" d="M1128.62,1296.38h-72a4.55,4.55,0,0,1-4.55-4.54h0a4.55,4.55,0,0,1,4.55-4.55h72a4.55,4.55,0,0,1,4.55,4.55h0A4.54,4.54,0,0,1,1128.62,1296.38Z"/>
  <rect class="cls-8" x="1139.98" y="1237.26" width="157.01" height="13.32" rx="2.97"/>
  <rect class="cls-7" x="1980.63" y="714.27" width="235.09" height="235.09" rx="8.1" style="fill: rgb(249, 250, 251);"/>
  <path class="cls-11" d="M2010.66,900.19l45.68-82.35a15,15,0,0,1,25.26-1.6L2108,852.18a15,15,0,0,0,23.21,1.26h0a15,15,0,0,1,23.69,2l28.44,43.9a15,15,0,0,1-12.62,23.2H2023.8A15,15,0,0,1,2010.66,900.19Z" style="fill: rgb(55, 65, 81);"/>
  <path class="cls-11" d="M2100.82,779.35a18,18,0,1,1,18,18A18,18,0,0,1,2100.82,779.35Z" style="fill: rgb(55, 65, 81);"/>
  <rect class="cls-7" x="2265.71" y="715.28" width="235.09" height="235.09" rx="8.1" style="fill: rgb(249, 250, 251);"/>
  <path class="cls-11" d="M2295.74,901.2l45.68-82.36a15,15,0,0,1,25.26-1.6L2393,853.18a15,15,0,0,0,23.2,1.26h0a15,15,0,0,1,23.7,2l28.44,43.91a15,15,0,0,1-12.62,23.19H2308.88A15,15,0,0,1,2295.74,901.2Z" style="fill: rgb(55, 65, 81);"/>
  <path class="cls-11" d="M2385.9,780.35a18,18,0,1,1,18,18A18,18,0,0,1,2385.9,780.35Z" style="fill: rgb(55, 65, 81);"/>
  <rect class="cls-8" x="2051.57" y="1784.21" width="118.48" height="101.58"/>
  <rect class="cls-11" x="2046.79" y="1779.86" width="127.27" height="7.85"/>
  <rect class="cls-11" x="2051.57" y="1811.69" width="118.48" height="32.27"/>
  <path class="cls-8" d="M2314.2,1885.86H2202.33a7.41,7.41,0,0,1-7.42-7.41V1866a7.41,7.41,0,0,1,8.23-7.37L2315,1871.08a7.42,7.42,0,0,1,6.59,7.37h0A7.41,7.41,0,0,1,2314.2,1885.86Z"/>
  <path class="cls-11" d="M 3129.13 1896.67 L 321.13 1895.67 C 319.232 1895.665 317.695 1894.128 317.69 1892.23 L 317.69 1890.47 C 317.695 1888.572 319.232 1887.035 321.13 1887.03 L 3129.13 1888.03 C 3131.028 1888.035 3132.565 1889.572 3132.57 1891.47 L 3132.57 1893.23 C 3132.565 1895.128 3131.028 1896.665 3129.13 1896.67 Z"/>
  <rect class="cls-7" x="955.18" y="744.92" width="578.62" height="335.39" rx="9.57" style="fill: rgb(249, 250, 251);"/>
  <path class="cls-11" d="M1179.19,846.09v133a10.45,10.45,0,0,0,16.2,8.73l101.12-66.52a10.46,10.46,0,0,0,0-17.47l-101.12-66.53A10.46,10.46,0,0,0,1179.19,846.09Z" style="fill: rgb(55, 65, 81);"/>
  <path class="cls-12" d="M985.25,1050.05a10.39,10.39,0,1,1,10.39,10.39A10.39,10.39,0,0,1,985.25,1050.05Z"/>
  <path class="cls-12" d="M1468.12,1052.85H998.43a2.79,2.79,0,0,1-2.79-2.8h0a2.8,2.8,0,0,1,2.79-2.8h469.69a2.8,2.8,0,0,1,2.79,2.8h0A2.79,2.79,0,0,1,1468.12,1052.85Z" style="fill: rgb(234, 88, 12);"/>
  <rect class="cls-7" x="1676.03" y="715.23" width="253.52" height="378.44" rx="12.75" style="fill: rgb(249, 250, 251);"/>
  <path class="cls-13" d="M2634.38,602.66l-87.58,1.15a6.71,6.71,0,0,1-6.78-6.6h0a6.71,6.71,0,0,1,6.6-6.79l87.59-1.14a6.71,6.71,0,0,1,6.78,6.6h0A6.71,6.71,0,0,1,2634.38,602.66Z" style="fill: rgb(249, 250, 251);"/>
  <path class="cls-13" d="M2634.73,628.81,2547.14,630a6.71,6.71,0,0,1-6.78-6.6h0a6.71,6.71,0,0,1,6.61-6.78l87.58-1.15a6.71,6.71,0,0,1,6.78,6.6h0A6.7,6.7,0,0,1,2634.73,628.81Z" style="fill: rgb(249, 250, 251);"/>
  <path class="cls-13" d="M2635.08,655.64l-87.59,1.15a6.72,6.72,0,0,1-6.78-6.61h0a6.72,6.72,0,0,1,6.61-6.78l87.58-1.15a6.72,6.72,0,0,1,6.78,6.61h0A6.71,6.71,0,0,1,2635.08,655.64Z" style="fill: rgb(249, 250, 251);"/>
  <path class="cls-13" d="M2335.09,1123H2126.57a8.9,8.9,0,0,1-8.88-8.87h0a8.9,8.9,0,0,1,8.88-8.88h208.52a8.9,8.9,0,0,1,8.88,8.88h0A8.9,8.9,0,0,1,2335.09,1123Z" style="fill: rgb(249, 250, 251);"/>
  <path class="cls-13" d="M2335.09,1211.08H2126.57a8.9,8.9,0,0,1-8.88-8.87h0a8.9,8.9,0,0,1,8.88-8.88h208.52a8.9,8.9,0,0,1,8.88,8.88h0A8.9,8.9,0,0,1,2335.09,1211.08Z" style="fill: rgb(249, 250, 251);"/>
  <path class="cls-13" d="M2335.09,1167.05h-249.4a8.9,8.9,0,0,1-8.88-8.87h0a8.91,8.91,0,0,1,8.88-8.88h249.4a8.9,8.9,0,0,1,8.88,8.88h0A8.9,8.9,0,0,1,2335.09,1167.05Z" style="fill: rgb(249, 250, 251);"/>
  <path class="cls-13" d="M1853.69,1220.25H1645.17a8.9,8.9,0,0,1-8.88-8.88h0a8.9,8.9,0,0,1,8.88-8.87h208.52a8.9,8.9,0,0,1,8.88,8.87h0A8.9,8.9,0,0,1,1853.69,1220.25Z" style="fill: rgb(249, 250, 251);"/>
  <rect class="cls-13" x="1667.38" y="1258.31" width="131.18" height="17.75" rx="3.64" style="fill: rgb(249, 250, 251);"/>
  <path class="cls-13" d="M1628.41,1267.19a8.88,8.88,0,1,1,8.88,8.87A8.89,8.89,0,0,1,1628.41,1267.19Z" style="fill: rgb(249, 250, 251);"/>
  <rect class="cls-13" x="1667.38" y="1293.64" width="154.08" height="17.75" rx="3.95" style="fill: rgb(249, 250, 251);"/>
  <path class="cls-13" d="M1628.41,1302.51a8.88,8.88,0,1,1,8.88,8.88A8.88,8.88,0,0,1,1628.41,1302.51Z" style="fill: rgb(249, 250, 251);"/>
  <rect class="cls-13" x="1667.38" y="1331.98" width="131.18" height="17.75" rx="3.64" style="fill: rgb(249, 250, 251);"/>
  <path class="cls-13" d="M1628.41,1340.86a8.88,8.88,0,1,1,8.88,8.88A8.89,8.89,0,0,1,1628.41,1340.86Z" style="fill: rgb(249, 250, 251);"/>
  <path class="cls-10" d="M1484.31,1264.21s2.51-27.38-28.08-27.38c0,0,9.27,2.51,14.07,7.54,0,0-19.52-11.46-40.75,6.15s-8,61.74-14.5,70.12-31.6,10.06-28.53,37.16,79.81,61,74.88,83.47c0,0,30.07-44.2,8.57-64.37,0,0,10.48,9.87,11.55,21.6,0,0,2.84-22.91-11.74-30.24-12.9-6.48-23.47-30.2-22.35-34.44S1484.31,1264.21,1484.31,1264.21Z"/>
  <path class="cls-14" d="M1454.19,1395.67s22.86,94.55,45.29,113.45c13.49,11.36,53.59,37.43,53.59,37.43l-16.68,6.06s-55.62-18.79-68.07-33.42-46.54-88-46.54-88Z"/>
  <path class="cls-15" d="M1239.39,1561.78l.63,1.11c5,8.69,16.48,30,29.11,53.3,6,11.06,12.24,22.57,18.18,33.4,10.23,18.7,19.53,35.35,25,44.15s9.59,15.23,11.24,17.74h0a4.19,4.19,0,0,1,.53,2.6,136.71,136.71,0,0,0,.36,23.44c7.63,75.83,58.76,116.47,58.76,116.47l15.21,2.25s-21.52-79.71-27.86-124.78c-1.07-7.63-1.54-13.83-1.16-17.86,1.12-11.74-1-29-4.91-48.77-7-35.17-19.9-78.34-31.09-112.89-.71-2.21-22.09-79.55-22.09-79.55-18,15.68-83.4,22.16-83.4,22.16S1216.77,1521.54,1239.39,1561.78Z"/>
  <path class="cls-16" d="M1430.29,1875.48h-63.46s-1.52-9.67,1.79-17c3.18-7,7.71-7.27.58-18.3,4,4.15,17,5.87,26.17,4.63,1.12,1.82,7.25,14,11,16.75C1410.52,1864.54,1429,1863.48,1430.29,1875.48Z"/>
  <path class="cls-11" d="M1239.39,1561.78l.63,1.11c5,8.69,32,58.65,44.69,82-14.64-60.25-4.46-120.49-4.46-120.49Z"/>
  <path class="cls-10" d="M1475.66,1260.36c.41-1.67-36.25,16.56-38.1,18.63-17.2,19.07-12.29,44-2.46,44.19,6.31.15,5.09,10.64,5.09,10.64l70.29-29.73S1502,1254.74,1475.66,1260.36Z"/>
  <path class="cls-17" d="M1452,1381.47s10.69,21.36,9.36,38.7c0,0-12.9,20.36-46.35,25.52C1415.05,1445.69,1443.81,1381.45,1452,1381.47Z"/>
  <path class="cls-15" d="M1288.86,1499.28l.22-11.87c-23.65,3-81.53-28.25-81.53-28.25s-24.74,16.45-28.13,63.44c-1.65,22.93-12.11,119.93-13.27,148.89-.42,10.5-.56,18-.61,21v0a4.11,4.11,0,0,1-1,2.44,136.34,136.34,0,0,0-12.81,19.64c-36.08,67.14-17.21,158.35-17.21,158.35l8.38-2.13s30.51-94.56,50.44-135.46c3.39-6.94,6.46-12.34,9-15.46,7.49-9.11,15.4-24.57,23.19-43.18C1240.3,1641.51,1288.86,1499.28,1288.86,1499.28Z"/>
  <path class="cls-16" d="M1185,1875.48h-63.46s-1.52-9.67,1.8-17c3.17-7,8.15-10.24,7-18.76,4,4.15,10.6,8.8,19.77,7.56,1.13,1.83,7.26,11.58,11,14.28C1165.21,1864.54,1183.7,1863.48,1185,1875.48Z"/>
  <path class="cls-17" d="M1410.77,1459.31c-8.52,1.46,1.39,8.23-10.33,9.51-16.69,1.82-33.91,3.07-42.94,6.66-3.29,1.32-5.49,2.94-6.18,5-3.91,11.76-28.68,32-28.68,32-110.5-5-117.62-54.27-117.62-54.27,71.72-69.65,132.72-107.61,183.15-112.31,12.27-1.15,28.81.39,36.57,3.85,17.63,7.85,27.3,31.74,27.3,31.74S1443.16,1453.79,1410.77,1459.31Z"/>
  <path class="cls-18" d="M1400.44,1468.82c-16.69,1.82-33.91,3.07-42.94,6.66-3.69-55.1,22.32-96.56,22.32-96.56S1396.78,1448,1400.44,1468.82Z"/>
  <path class="cls-14" d="M1423.8,1354.27c3.15,9.88,13.66,38,28.24,27.2-.5-2.1,2.57-8.21,6.18-14.42,4.61-7.93,10.11-16,10.11-16l-23.75-20.81-1.42-1.24a60.44,60.44,0,0,1-17.67,20.06A4.74,4.74,0,0,0,1423.8,1354.27Z"/>
  <path class="cls-19" d="M1468.32,1351s-5.49,8.08-10.1,16c-14.76-9.1-14.78-27.37-13.64-36.84Z"/>
  <path class="cls-14" d="M1469,1361.45s-35.84-19.94-23.08-42.07,16.74-39.61,40.16-27.81,23,22.79,20.5,31.21S1478.63,1366.07,1469,1361.45Z"/>
  <path class="cls-10" d="M1512.61,1309.87c-1.64-9.82-6.63-10.76-10.11-10.1-13.24-21.89-34.86-13.35-34.86-13.35a48.84,48.84,0,0,1-28.25,17s4.16,7.73,21.29,12.53c5.24,1.46,11.18.57,16.91-1.36a95.69,95.69,0,0,1-24.32,9.17c22.58,2.07,44.07-18.58,46.29-20.79,1,3.2,2.87,9.9,1.78,14.8-1.49,6.65-7.39,18.71-3.79,20.27C1497.55,1338,1515.07,1324.61,1512.61,1309.87Z"/>
  <path class="cls-14" d="M1448.46,1607.56s.78,6.68,3.6,10.13,11,11.79,11.18,16.68c0,0-.42,2.17-2.18,1.77s-7.87-6.45-11-6c0,0,1.67,9.8,3.33,12.55s4.72,13.15,3.72,15.53-17.61-11.47-22.65-18.24-.08-34.23-.08-34.23Z"/>
  <path class="cls-14" d="M1414.83,1369.6s-42-2.3-49.41,24.05,14,131.5,18.61,142.35c8.41,19.76,49.37,76.15,49.37,76.15l15.06-4.59s-27.31-86.15-33.41-94.67C1405.48,1499.5,1427.39,1381.06,1414.83,1369.6Z"/>
  <path class="cls-17" d="M1357.14,1428.88c.11.61,39.71,7.28,64.48-5.29,0,0,20.69-64.82-8.88-61.72s-47.08,12.42-47.82,26.57S1357.14,1428.88,1357.14,1428.88Z"/>
  <path class="cls-14" d="M1532.46,1504.4c-2,.09-5.65.75-7,1.76-2.29,1.76-4.86,4.83.27,7.38,7.69,3.83,23.07,2.13,22.47-.17C1546.34,1506.1,1543.57,1503.89,1532.46,1504.4Z"/>
  <rect class="cls-16" x="1492.919" y="1749.812" width="413.002" height="167.261" rx="27.48" transform="matrix(0.722122, 0.691765, -0.691765, 0.722123, 1659.710205, -807.351074)" style="fill: rgb(52, 52, 51);"/>
  <path class="cls-9" d="M1471.87,1618.62l22.58,5.4a1.76,1.76,0,0,0,1.67-.49l16.46-17.18a1.72,1.72,0,0,1,1.55-.51l11.35,1.93a1.75,1.75,0,0,1,1.4,1.28l2.81,10.7a1.75,1.75,0,0,1-.43,1.65l-16.94,17.68a1.77,1.77,0,0,0-.43,1.66l5.65,21.5a1.75,1.75,0,0,0,3,.77l33.5-35a1.77,1.77,0,0,0,.43-1.66l-9.67-36.88a1.75,1.75,0,0,0-1.3-1.26l-36.75-8.57a1.77,1.77,0,0,0-1.66.49l-34,35.53A1.76,1.76,0,0,0,1471.87,1618.62Z" style="fill: rgb(249, 250, 251);"/>
  <path class="cls-9" d="M1572.36,1643.07l36.61,8a1.76,1.76,0,0,1,1.32,1.27l9.52,36.23a1.73,1.73,0,0,1-.43,1.65l-25.47,26.59a1.75,1.75,0,0,1-1.61.5l-37.08-7.46a1.74,1.74,0,0,1-1.35-1.3l-9-36.72a1.75,1.75,0,0,1,.44-1.63l25.47-26.59A1.74,1.74,0,0,1,1572.36,1643.07Z" style="fill: rgb(249, 250, 251);"/>
  <path class="cls-9" d="M1712.93,1690.46l-32,33.42a1.75,1.75,0,0,1-3-.76l-2.13-8a1.74,1.74,0,0,0-1.35-1.27l-37.48-7.35a1.77,1.77,0,0,0-1.6.51l-25.23,26.33a1.75,1.75,0,0,0-.43,1.65l9.28,36a1.74,1.74,0,0,0,1.28,1.27l36.63,8.93a1.75,1.75,0,0,0,1.68-.49l62.77-65.52a1.72,1.72,0,0,0,.43-1.66l-5.91-22.28A1.75,1.75,0,0,0,1712.93,1690.46Zm-63.19,64.79-11-2.13a1.75,1.75,0,0,1-1.39-1.39l-2.2-11.47a1.74,1.74,0,0,1,.45-1.54l6.72-7a1.74,1.74,0,0,1,1.63-.5l10.86,2.36a1.76,1.76,0,0,1,1.33,1.27l2.82,10.75a1.75,1.75,0,0,1-.43,1.66l-7.18,7.49A1.76,1.76,0,0,1,1649.74,1755.25Z" style="fill: rgb(249, 250, 251);"/>
  <path class="cls-9" d="M1675.55,1795.46l25.7-26.84a1.75,1.75,0,0,1,1.65-.49l36.87,8.2a1.74,1.74,0,0,1,1.31,1.25l9.78,36.49a1.8,1.8,0,0,1-.43,1.67l-7.15,7.46a1.77,1.77,0,0,1-1.66.49l-22.29-5.17a1.75,1.75,0,0,1-.87-2.92l6.7-7a1.76,1.76,0,0,0,.43-1.68l-2.81-10.3a1.75,1.75,0,0,0-1.23-1.23l-11.18-3a1.77,1.77,0,0,0-1.72.48l-7.84,8.19a1.74,1.74,0,0,0-.41,1.72l10.44,34.43a1.76,1.76,0,0,1-2,2.24L1686,1835.1a1.76,1.76,0,0,1-1.37-1.29l-9.53-36.7A1.73,1.73,0,0,1,1675.55,1795.46Z" style="fill: rgb(249, 250, 251);"/>
  <path class="cls-9" d="M1711.23,1798.19l6.16,1.4a1.73,1.73,0,0,1,1.33,1.37l1,5.39a1.74,1.74,0,0,1-.45,1.54l-3.69,3.86a1.78,1.78,0,0,1-1.67.49l-5.1-1.21a1.74,1.74,0,0,1-1.22-1l-2.21-5.47a1.75,1.75,0,0,1,.36-1.87l3.79-4A1.74,1.74,0,0,1,1711.23,1798.19Z" style=""/>
  <path class="cls-20" d="M2221.66,1277.71h-3.47v-15.6a10.16,10.16,0,0,1,10.15-10.14h42.89a6.7,6.7,0,0,0,6.46-5l6.78-25.79a6.68,6.68,0,0,0-6.46-8.37h-56v-3.47h56a10.13,10.13,0,0,1,9.81,12.72l-6.78,25.79a10.16,10.16,0,0,1-9.81,7.57h-42.89a6.68,6.68,0,0,0-6.68,6.67Z"/>
  <rect class="cls-8" x="2177.01" y="1196.46" width="96.23" height="29.26" rx="6.07"/>
  <path class="cls-20" d="M2219.93,1342.44h0a9.54,9.54,0,0,1-9.54-9.54v-57.8a9.54,9.54,0,0,1,9.54-9.53h0a9.54,9.54,0,0,1,9.54,9.53v57.8A9.54,9.54,0,0,1,2219.93,1342.44Z"/>
  <path class="cls-14" d="M2584.89,1467.77s6.56,20.21,6,24.83-4.69,20.41-7.63,24.45-4.39-16.46-6.72-19.54-.48,7.72-2.12,8.72-5.07-8-6.54-11.11,3.6-14.79,3.61-22.91S2584.89,1467.77,2584.89,1467.77Z"/>
  <path class="cls-21" d="M2430.58,1307.26c-1.82-23.17,23.35-39.06,43.23-27l1.21.76c29.75,19.15,93.95,108.52,98.37,117.47s17.46,80.17,17.46,80.17-16.11,5.9-23.65-.22c0,0-26.14-67.54-30-70.92s-104.55-59.87-105.4-81C2431.57,1320.86,2431.12,1314.13,2430.58,1307.26Z"/>
  <path class="cls-16" d="M2610.24,1830.33s12,11,9.66,18.73-13.17,13-14.63,22.47-7.32,14.7-12.59,14.7h-25.11s-3.87-6.69,5.49-8.71,12.89-13.19,12.31-23.56.88-24.2.88-24.2l19.89-4.61Z"/>
  <path class="cls-16" d="M2463.06,1858.65s2.15,24.92-3.11,27.51l-67.41-.14s0-7.78,10.83-9.51,29.84-8.06,33.06-22.18S2463.06,1858.65,2463.06,1858.65Z"/>
  <path class="cls-15" d="M2406.15,1506.69s3.56,43.67,7.74,96.17c5.68,71.32,12.51,158.92,13.18,175.52,1.17,28.81,5.86,74.91,5.86,74.91s11.11,11,33.35,6.34c0,0,19.82-65.81,25.49-135.43.08-1.14.17-2.29.26-3.44,5.27-70.88,13.46-220.12,13.46-220.12Z"/>
  <path class="cls-11" d="M2406.15,1506.69s3.56,43.67,7.74,96.17l77.88,121.34c.08-1.14.17-2.29.26-3.44,5.27-70.88,13.46-220.12,13.46-220.12Z"/>
  <path class="cls-15" d="M2422.39,1511.88s64.08,158.17,106.21,232.5,55.31,95.08,55.31,95.08,24.14-9.51,26.33-16c0,0-16.11-143.5-44.33-178.49-15.94-19.76-34.67-79.08-35.55-99.83s-5.71-61.8-5.71-61.8Z"/>
  <path class="cls-14" d="M2477.64,1274.61s-42.93,21.77-68.08,14.51a58.87,58.87,0,0,1,16.65-13.87c-1-5-1.72-9.34-2.18-13a118.93,118.93,0,0,1-1.32-13.32l16.46-13.49,15.61-12.9C2454.23,1257.93,2477.64,1274.61,2477.64,1274.61Z"/>
  <path class="cls-8" d="M2520.29,1495.87c-17.34,10.49-33.75,18.38-52.95,22.81-22.66,5.37-50.5,3.79-59.81,5.21a3.9,3.9,0,0,1-2.72-.69c-.73-.38-4.84-28-9-62.89-.18-1.4-.37-2.82-.45-4.24l-.06-.47c-1.6-13.63-3-27.95-4.22-42.31-1-11.17-1.82-22.22-2.38-32.59-.72-13-1-24.91-.72-34.72.13-4.49.4-8.52.8-12,2.45-20.37,12.17-34.93,21.32-45.77l7.59-8.63a41.67,41.67,0,0,0,26.27-6.71c9.27-6.1,19.27-12.66,21.16-11.57,14.21,7.78,25.78,27.92,34,54.53a302.7,302.7,0,0,1,10.7,51.09c.75,5.72,1.39,11.58,1.87,17.41.1,1.08.18,2.16.26,3.22,1.12,16,2.94,30.9,5,44.25,2.71,18,5.8,33.08,8,43.7,1.1,5.41,1.93,9.59,2.43,12.58C2527.85,1490.67,2522.62,1494.42,2520.29,1495.87Z"/>
  <path class="cls-19" d="M2455.34,1236s-10.56,20.19-31.31,26.18a118.93,118.93,0,0,1-1.32-13.32l16.46-13.49Z"/>
  <path class="cls-14" d="M2415.07,1248.47s41.49,6,44.87-19.55,11-41.91-15.34-46.78-32.79,4.2-36,12.44S2404.37,1246.27,2415.07,1248.47Z"/>
  <path class="cls-10" d="M2474,1178.51c.37-.44,1.23-.8,3.15-.94a7.84,7.84,0,0,0-3.62-.94c-.45-2.68-2-7.39-6.61-8.45a5.77,5.77,0,0,1,2.89,4.11c-5.45-5.38-17-9.14-48.62-6-41.7,4.12-27.41,30.59-21.94,33.67s18.91-5.93,29-5.33,12.3,15.12,15.76,17.05,2-1.57,6.62-3.76,5.18,5.48,3.94,10.48,5.25,11.46,5.25,11.46l6.28-7c6.28-7,11.75-36.46,8.71-42.64C2474.51,1179.62,2474.25,1179.07,2474,1178.51Z"/>
  <path class="cls-21" d="M2460.8,1348.25s-35,26.61-72.06,32.45c-.72-13-1-24.91-.72-34.72Z"/>
  <path class="cls-14" d="M2246,1313.9c-.55-.59-7.69-24.43-20-22.69-8.05,1.13-21.2,5.79-17.71,16.39,1.38,4.17,25.9,18.53,25.9,18.53Z"/>
  <path class="cls-8" d="M2465.12,1296.82c20,11.93,18.33,41.65-3,50.88-.44.19-.88.38-1.32.55-32.84,13.18-142.88,13.79-152.73,12.21s-75.48-32.18-75.48-32.18,4.52-16.55,13.87-19.16c0,0,70.21,17.79,75.2,16.6s109.33-50.59,127.1-39C2453.46,1289.75,2459.21,1293.28,2465.12,1296.82Z"/>
  <polygon class="cls-9" points="1622.87 687.28 1568.98 699.82 1542.34 748.31 1521.99 637.81 1622.87 687.28" style="fill: rgb(249, 250, 251);"/>
  <rect class="cls-9" x="1574.4" y="686.37" width="9.85" height="56.99" transform="matrix(0.797057, -0.603904, 0.603904, 0.797057, -111.169998, 1098.959961)" style="fill: rgb(249, 250, 251);"/>
  <path d="M972.54,630.6h6.26v31.84h-6.26Zm19.33,12.55a7.32,7.32,0,0,0-1.75-5.22,7.58,7.58,0,0,0-9.65-.21,6.06,6.06,0,0,0-1.67,4.57l-.65-6.14A11.46,11.46,0,0,1,982,631.7a9.4,9.4,0,0,1,5.26-1.56,9.9,9.9,0,0,1,8,3.39q2.84,3.39,2.83,9.59v19.32h-6.25Z"/>
  <path d="M1009,660.47q-2.92-2.44-2.92-7.41,0-4.72,2.67-7.09t8.07-2.36h9.05l.43,5h-9.45a5.33,5.33,0,0,0-3.67,1.09,4.26,4.26,0,0,0-1.21,3.33,4.16,4.16,0,0,0,1.61,3.59,8.45,8.45,0,0,0,4.9,1.16,14.2,14.2,0,0,0,5.35-.76,2.54,2.54,0,0,0,1.76-2.4l.65,4.48a7.38,7.38,0,0,1-2,2.12,9.1,9.1,0,0,1-2.81,1.24,14.12,14.12,0,0,1-3.59.41Q1011.93,662.9,1009,660.47Zm16.59-18.21a6.67,6.67,0,0,0-1.67-4.86,6.25,6.25,0,0,0-4.74-1.74,12.17,12.17,0,0,0-3.73.59,11,11,0,0,0-3.23,1.62l-4.57-3.13a11.89,11.89,0,0,1,4.77-3.39,17.14,17.14,0,0,1,6.58-1.21,15.15,15.15,0,0,1,6.78,1.4,9.67,9.67,0,0,1,4.29,4.05,13,13,0,0,1,1.47,6.39v20.46h-6Z"/>
  <path d="M1041.07,630.6h6.26v31.84h-6.26Zm15.44,6a7.73,7.73,0,0,0-2.92-.52,6.28,6.28,0,0,0-4.62,1.64,6.2,6.2,0,0,0-1.64,4.56l-.64-6.14a11.69,11.69,0,0,1,3.8-4.43,9,9,0,0,1,5.16-1.58,11.67,11.67,0,0,1,3.94.63,8.77,8.77,0,0,1,3.08,1.86l-4.08,5.52A5.25,5.25,0,0,0,1056.51,636.61Z"/>
  <path d="M1075.9,662.9l-3.13-1.65a11.09,11.09,0,0,1-4.77-4.86,16.77,16.77,0,0,1-1.65-7.75v-3.59a18.82,18.82,0,0,1,1.58-8.07,11.33,11.33,0,0,1,4.59-5.09,14.12,14.12,0,0,1,7.24-1.75,11.55,11.55,0,0,1,6.81,2,12.43,12.43,0,0,1,4.31,5.77,24.72,24.72,0,0,1,1.49,9.05V649h-21.48v-5h15.53a10.8,10.8,0,0,0-2-6.06,5.67,5.67,0,0,0-4.65-2.16,6.77,6.77,0,0,0-5.51,2.33,10,10,0,0,0-1.94,6.59v4a8.3,8.3,0,0,0,2.08,6.08,8,8,0,0,0,5.92,2.11,9.93,9.93,0,0,0,3.78-.76,10.92,10.92,0,0,0,3.34-2.15l4.11,4.11a17.29,17.29,0,0,1-5.31,3.51,15,15,0,0,1-5.92,1.24Z"/>
  <path d="M1101,630.6h6.26v31.84H1101Zm19,12.55a7.52,7.52,0,0,0-1.66-5.22,6,6,0,0,0-4.69-1.84,6.48,6.48,0,0,0-4.74,1.63,6.1,6.1,0,0,0-1.67,4.57l-.65-6.14a11.54,11.54,0,0,1,3.85-4.45,9.41,9.41,0,0,1,5.27-1.56,10.34,10.34,0,0,1,5.7,1.52,9.52,9.52,0,0,1,3.61,4.43,17.9,17.9,0,0,1,1.24,7v19.32H1120Zm19,0a7.27,7.27,0,0,0-1.75-5.22,6.46,6.46,0,0,0-4.91-1.84,5.78,5.78,0,0,0-4.51,1.78,7.3,7.3,0,0,0-1.59,5l-1.26-6.13a12.29,12.29,0,0,1,4-4.9,9.34,9.34,0,0,1,5.45-1.73,10.89,10.89,0,0,1,5.87,1.52,9.55,9.55,0,0,1,3.72,4.43,17.52,17.52,0,0,1,1.27,7v19.32H1139Z"/>
  <path d="M1154.77,617.84H1161v6.26h-6.26Zm0,12.76H1161v31.84h-6.26Z"/>
  <path d="M1179,662.9l-2.47-.55a19.5,19.5,0,0,1-4.62-1.65,18.52,18.52,0,0,1-4-2.76l3.71-4.58a21.15,21.15,0,0,0,5.13,2.95,14,14,0,0,0,5,1,10.74,10.74,0,0,0,5.57-1.15,3.81,3.81,0,0,0,1.85-3.45,2.72,2.72,0,0,0-1-2.3,5.64,5.64,0,0,0-2.52-1q-1.5-.25-4.23-.48h-.52l-.52,0h-.25l-.24,0a24.53,24.53,0,0,1-5.25-.9,7.1,7.1,0,0,1-3.57-2.47,8.24,8.24,0,0,1-1.43-5.19,10.51,10.51,0,0,1,1.38-5.61,8.43,8.43,0,0,1,4.11-3.36,18.06,18.06,0,0,1,6.84-1.12,23.38,23.38,0,0,1,4.74.46,20.83,20.83,0,0,1,4.31,1.37,21.33,21.33,0,0,1,4,2.28l-3.77,4.57a21.25,21.25,0,0,0-4.71-2.3,14.42,14.42,0,0,0-4.53-.77,8.57,8.57,0,0,0-4.78,1.09,3.69,3.69,0,0,0-1.6,3.27,2.2,2.2,0,0,0,.91,1.93,5.2,5.2,0,0,0,2.28.86c.92.15,2.23.27,3.93.37a2.34,2.34,0,0,0,.38,0l.42,0h.18l.19,0a27.77,27.77,0,0,1,5.69.89,7.71,7.71,0,0,1,3.94,2.67,9.08,9.08,0,0,1,1.59,5.77,10.21,10.21,0,0,1-1.47,5.69,8.93,8.93,0,0,1-4.43,3.39,21,21,0,0,1-7.44,1.13Z"/>
  <path class="cls-14" d="M2147.82,662.76a7.19,7.19,0,0,1,1.28,7.68.08.08,0,0,1,0,0c-1.86,5.11-8,10.83-15.08,16.53-.91.74-1.71,1.4-2.42,2-.18.16-.37.32-.54.49l-.42.37c-6.63,6.11-4.13,7.51-16,19.91-13.57,14.12-22.92,14.38-25.58,13.09-2.25-1.1,2.32-8.59,7.39-17l.73-1.22c.68-1.12,1.35-2.26,2-3.39,5.93-10.13,4.41-14.88,3-30-1.14-12.26-19.06-68.47-19.06-68.47l26-4.48s7.84,44.76,16.47,51.65c4.61,3.68,9.78,3.72,14.22,6.45.31.19.62.38.92.58A34.33,34.33,0,0,1,2147.82,662.76Z"/>
  <path class="cls-10" d="M2147.82,662.76a7.19,7.19,0,0,1,1.28,7.68.08.08,0,0,1,0,0c-2.27,5.11-8.23,10.79-15.1,16.48-.9.75-1.69,1.43-2.4,2.07-.18.16-.37.32-.54.49l-.42.37c-6.63,6.11-4.13,7.51-16,19.91-13.57,14.12-22.92,14.38-25.58,13.09-2.25-1.1,2.32-8.59,7.39-17a57.77,57.77,0,0,0,24.19-17.83c8.18-10.43,13.63-23.83,19.2-31.59.31.19.62.38.92.58A34.33,34.33,0,0,1,2147.82,662.76Z"/>
  <path class="cls-14" d="M1938.05,646.51c-1.6,8-13,6.69-25.84,3.57s-9.74.59-27.94-1.43-23.72-8.8-24.27-11.5c-.5-2.4,8.49-3.25,18.14-4.36l3.65-.44c10.89-1.37,18.86-8.39,28.76-14.16,9.37-5.47,23.35-27.74,23.35-27.74l25,2s-13.1,19.9-18.16,28.55c-3,5.08-2.82,11.81-2.45,17A32.08,32.08,0,0,1,1938.05,646.51Z"/>
  <path class="cls-10" d="M1912.21,650.08c-12.78-3.13-9.74.59-27.94-1.43s-23.72-8.8-24.27-11.5c-.5-2.4,8.49-3.25,18.14-4.36l.09.18a51.32,51.32,0,0,0,26.06,8.11c12.35.29,25.43-3.24,34-3.1a32.08,32.08,0,0,1-.2,8.53C1936.45,654.54,1925,653.2,1912.21,650.08Z"/>
  <path class="cls-21" d="M2033.71,486.92,2057,549.7l30.46,82a49.25,49.25,0,0,0,16.18-1.48c7.29-2.1,15.66-7.62,15.66-7.62s-8.46-88-24.24-138.55c-4-13-8.58-23.46-13.58-29.36C2057.06,425.76,2033.71,486.92,2033.71,486.92Z"/>
  <path class="cls-8" d="M2057.43,387.2c15.29-4.93,58.88,1.4,102.68,10l9.17-15.13,94.6-7.39S2295.09,443.89,2278,488c-2.51,6.48-7.5,10.64-16,10.77h-1.38l-74.58,0c-47.05,0-99.57-32.34-106.36-33.7-11.12-2.22-15.57,20-26.69,43.37s-104.53,103.42-104.53,103.42-14.35.14-20.29-2.08c-6.37-2.39-8.71-5.5-8.71-5.5S2023,398.32,2057.43,387.2Z"/>
  <path class="cls-10" d="M2152.3,242c28.53,25.79,98.11,71.54,98.51,71.38,0,0,22.27,15,38.31,9,26.74-9.9,48.89-48.29,15-93.82-16.9-22.71-31.48-30.66-26.45-59.41,5.45-31.15-6.65-71.3-42.64-74.85-3-.29-21.15-3.69-34.41-.28C2166.84,102.76,2104.8,223.43,2152.3,242Z" style=""/>
  <path class="cls-14" d="M2195.31,225.76c-.95,3.33,14.79,9.46,26.81,7.2,11.31-2.1,24-15.34,21.37-16.59-4.33-2.05-7.24-7.17-4.87-34.81l-2.15.24-36.18,4.13s-.11,11.27-.95,21.83C2198.64,216.62,2196.85,220.33,2195.31,225.76Z"/>
  <path class="cls-19" d="M2200.29,185.93s-.11,11.27-.95,21.83c20,1.07,32-16.24,37.13-26Z"/>
  <path class="cls-14" d="M2192.82,195.38s47.07,4.64,49.51-24.71,10.15-48.53-19.79-52.73-36.73,6.51-39.93,16.11S2180.64,193.42,2192.82,195.38Z"/>
  <path class="cls-10" d="M2197.86,113.3s5.93,35.86,32.73,44.37c19.56,6.21,28.42,2.12,28.42,2.12A79.67,79.67,0,0,1,2246.25,130a14.37,14.37,0,0,0-9.58-10.95C2222.78,114.43,2205.94,101.93,2197.86,113.3Z" style=""/>
  <path class="cls-10" d="M2206.73,121s-8.87,2-16.73,13.42c-4.29,6.26-9.27,22-8.42,29,0,0-8.24-33.2,3.77-45.54C2198.09,104.75,2206.73,121,2206.73,121Z" style=""/>
  <path class="cls-17" d="M2280.06,322.19c-.84,3.57-1.56,6.85-2.14,9.87-1,4.88-1.62,9.09-2.09,12.81-1.43,11.57-1,18.43-2,25.94a64.92,64.92,0,0,1-3.52,14.12c-2,5.38-53.1,10.17-82.2,8.24-9.24-.6-16.27-1.91-18.78-4.06-10.38-9-9.34,10.81-10.76-84.07-.69-46.27,39.26-87.49,39.26-87.49s3.2,19.77,42.82-3.76c1.41-.82,17,22.29,32,50.74C2289.27,296,2284.73,302.62,2280.06,322.19Z"/>
  <path class="cls-8" d="M2057,549.7l30.46,82a49.25,49.25,0,0,0,16.18-1.48c7.29-2.1,15.66-7.62,15.66-7.62s-8.46-88-24.24-138.55Z"/>
  <path class="cls-17" d="M2197.86,217.54s-40.77,6.91-45.56,24.47-37.87,115.74-37.87,115.74,25.63,8.75,35.21-.83S2183,268.08,2183,268.08Z"/>
  <path class="cls-9" d="M2203.68,178.07s-2,4.83-7.18,4.83-6.62-.78-7.61-1.89a16.4,16.4,0,0,1-2-3.23A44.3,44.3,0,0,1,2203.68,178.07Z"/>
  <path class="cls-22" d="M2275.83,344.87c-1.43,11.57-1,18.43-2,25.94-37,.12-86.52-28.59-86.52-28.59Z"/>
  <path class="cls-22" d="M2187.34,317.93s57.67-1.71,67.39-34.5c10.68-36,22.65,14.81,22.65,14.81L2271,330.68h-63.28Z"/>
  <path class="cls-23" d="M 1923.86 248.05 L 2160.237 249.026 C 2163.58 240.751 2161.7 403.81 2161.7 403.81 L 1923.86 403.81 L 1923.86 248.05 Z" style="fill: rgb(66, 65, 64);"/>
  <path class="cls-14" d="M2187.34,325.53l-4.17-6.55a33.45,33.45,0,0,1-7.93-4.32c-5.51-3.87-4.79-9.67-7.54-9.05l0,12.73.3,0c-11.82,3.16-25.64-.27-25.92,2.67-.76,8.1,5.5,11.74,10.74,14.28,4,1.94,8.58,4.85,15.84,2.59,5.3-1.65,13.64-3.33,13.64-3.33Z"/>
  <path class="cls-17" d="M2240.69,213.8s37.44,2.45,46.8,17,21,88.74,16.1,114.2-124.77-4.87-124.77-4.87l3.83-22.09s69.19.4,73.14-8.61C2261,297.5,2240.69,213.8,2240.69,213.8Z"/>
  <path class="cls-14" d="M2060,244c.32,1-5.63,10.78-14.13,9.07-5.3-1.06-12.19-12.47-6.14-15C2049.8,233.85,2059.1,241.37,2060,244Z"/>
  <path class="cls-9" d="M 2084.13 303.49 C 2087.13 304.57 2090.02 305.54 2092.87 306.71 C 2098.87 309.16 2104.5 312.21 2108.93 317.07 C 2111.54 319.94 2113.36 323.19 2113.13 327.23 C 2112.93 330.84 2111.19 333.76 2108.83 336.36 C 2104.34 341.3 2098.64 344.42 2092.58 346.96 C 2090.27 347.96 2087.9 348.77 2085.51 349.52 C 2084.46 349.85 2084.32 350.27 2084.51 351.27 C 2085.99 357.9 2086.96 364.6 2086.09 371.4 C 2085.78 374.128 2085.163 376.811 2084.25 379.4 C 2081.45 386.94 2075.43 389.93 2067.42 388.02 C 2060.42 386.35 2054.62 382.48 2049.15 378.02 C 2047.36 376.57 2045.66 375.02 2044.15 373.66 C 2040.26 376.6 2036.55 379.66 2032.61 382.31 C 2028.34 385.345 2023.437 387.373 2018.27 388.24 C 2010.81 389.39 2005.49 386.24 2002.88 379.08 C 2000.88 373.64 2000.79 367.99 2001.35 362.34 C 2001.75 358.34 2002.54 354.34 2003.16 350.28 C 2000.68 349.38 1998.07 348.52 1995.53 347.5 C 1989.894 345.417 1984.712 342.266 1980.27 338.22 C 1978.798 336.826 1977.493 335.265 1976.38 333.57 C 1973.22 328.69 1973.45 323.57 1976.86 318.82 C 1980.46 313.82 1985.46 310.64 1990.91 308.16 C 1994.42 306.57 1998.1 305.38 2001.71 304.02 L 2003.32 303.45 C 2002.74 300.15 2002.06 296.94 2001.64 293.7 C 2000.83 287.39 2000.7 281.07 2002.64 274.9 C 2004.76 268.19 2009.77 264.4 2016.05 265.06 C 2018.734 265.349 2021.373 265.96 2023.91 266.88 C 2030.73 269.37 2036.43 273.69 2041.81 278.47 C 2042.42 279.01 2043.02 279.58 2043.69 280.2 C 2045.39 278.71 2047.02 277.2 2048.69 275.82 C 2054.1 271.37 2059.83 267.41 2066.69 265.68 C 2069.069 265.069 2071.535 264.873 2073.98 265.1 C 2079.62 265.72 2082.58 269.61 2084.34 274.61 C 2086.068 279.966 2086.59 285.638 2085.87 291.22 C 2085.49 295.01 2084.7 298.75 2084.1 302.52 C 2084.15 302.86 2084.15 303.19 2084.13 303.49 Z M 2043.76 304.19 C 2039.91 304.34 2036.05 304.44 2032.19 304.68 C 2031.459 304.768 2030.8 305.165 2030.38 305.77 C 2026.5 312.33 2022.71 318.95 2018.87 325.55 C 2018.384 326.283 2018.384 327.237 2018.87 327.97 C 2022.72 334.56 2026.52 341.17 2030.4 347.74 C 2030.784 348.297 2031.389 348.661 2032.06 348.74 C 2039.893 348.8 2047.723 348.8 2055.55 348.74 C 2056.142 348.674 2056.673 348.348 2057 347.85 C 2060.94 341.09 2064.837 334.307 2068.69 327.5 C 2068.943 326.962 2068.943 326.338 2068.69 325.8 C 2064.823 319.053 2060.913 312.333 2056.96 305.64 C 2056.553 305.075 2055.923 304.711 2055.23 304.64 C 2051.42 304.45 2047.6 304.34 2043.76 304.19 Z M 2004.83 309.19 C 1998.01 311.19 1991.37 313.65 1985.74 318.19 C 1984.065 319.572 1982.573 321.161 1981.3 322.92 C 1979.609 325.048 1979.559 328.047 1981.18 330.23 C 1982.09 331.651 1983.164 332.96 1984.38 334.13 C 1988.67 338.18 1993.86 340.72 1999.32 342.77 C 2001.15 343.46 2003.02 344.04 2004.92 344.69 L 2005.33 343.51 C 2007.09 338.87 2008.69 334.15 2010.68 329.61 C 2011.575 327.826 2011.575 325.724 2010.68 323.94 C 2008.56 319.14 2006.8 314.24 2004.83 309.18 L 2004.83 309.19 Z M 2009.1 351.82 C 2009.01 352.09 2008.93 352.31 2008.88 352.53 C 2007.299 358.268 2006.677 364.229 2007.04 370.17 C 2007.293 372.95 2007.936 375.68 2008.95 378.28 C 2010.35 381.88 2013.04 383.18 2016.86 382.58 C 2026.22 381.12 2033.08 375.34 2039.86 369.34 C 2037.77 366.89 2035.75 364.62 2033.86 362.25 C 2031.97 359.88 2030.2 357.38 2028.28 355.02 C 2027.791 354.589 2027.171 354.335 2026.52 354.3 C 2024.08 353.97 2021.62 353.79 2019.19 353.44 C 2015.81 353 2012.49 352.37 2009.1 351.81 L 2009.1 351.82 Z M 2078.77 351.49 L 2077.54 351.65 C 2071.87 352.52 2066.19 353.36 2060.54 354.29 C 2059.961 354.446 2059.455 354.8 2059.11 355.29 C 2057.11 357.89 2055.2 360.57 2053.17 363.15 C 2051.57 365.2 2049.84 367.15 2048.05 369.3 C 2049.9 370.9 2051.67 372.53 2053.54 374.03 C 2057.78 377.44 2062.28 380.42 2067.54 382.03 C 2074.11 384.03 2077.69 382.03 2079.54 375.49 C 2080.803 370.561 2081.048 365.427 2080.26 360.4 C 2079.89 357.42 2079.29 354.5 2078.77 351.48 L 2078.77 351.49 Z M 2009.08 301.81 C 2015.08 300.93 2020.85 300.07 2026.63 299.28 C 2027.44 299.199 2028.172 298.763 2028.63 298.09 C 2032.02 293.82 2035.47 289.59 2038.9 285.34 C 2039.14 285.05 2039.35 284.75 2039.65 284.34 C 2038.21 283.08 2036.87 281.83 2035.45 280.67 C 2030.56 276.67 2025.45 273.1 2019.21 271.45 C 2012.72 269.72 2009.38 271.68 2007.84 278.25 C 2005.93 286.25 2007.31 294.08 2009.08 301.8 L 2009.08 301.81 Z M 2078.39 301.81 C 2079.929 295.859 2080.563 289.71 2080.27 283.57 C 2080.161 280.472 2079.419 277.43 2078.09 274.63 C 2076.48 271.5 2074.21 270.37 2070.71 270.8 C 2067.408 271.302 2064.233 272.436 2061.36 274.14 C 2056.51 276.898 2052.047 280.287 2048.09 284.22 C 2051.88 289.1 2055.57 293.88 2059.31 298.62 C 2059.643 298.944 2060.077 299.142 2060.54 299.18 C 2066.41 300.09 2072.28 300.94 2078.39 301.84 L 2078.39 301.81 Z M 2082.6 309.2 C 2082.43 309.41 2082.35 309.47 2082.32 309.55 C 2080.18 315.03 2078.02 320.5 2075.92 325.99 C 2075.783 326.433 2075.804 326.911 2075.98 327.34 C 2078.09 332.67 2080.24 337.99 2082.34 343.34 C 2082.61 344.03 2082.89 344.27 2083.61 344.03 C 2090.1 341.91 2096.43 339.39 2101.75 334.97 C 2103.493 333.452 2105.036 331.718 2106.34 329.81 C 2107.814 327.887 2107.814 325.213 2106.34 323.29 C 2105.17 321.58 2103.785 320.027 2102.22 318.67 C 2096.46 314 2089.66 311.36 2082.6 309.23 L 2082.6 309.2 Z M 2077.19 345.87 C 2075.57 341.6 2074.05 337.64 2072.43 333.38 L 2064 348.13 L 2077.19 345.87 Z M 2010.49 346.11 L 2023.49 348.21 L 2015.05 333.64 L 2010.49 346.11 Z M 2035.38 354.92 L 2043.95 365.16 L 2052.26 354.92 L 2035.38 354.92 Z M 2035.38 298.47 L 2052.08 298.47 L 2043.76 288.47 L 2035.38 298.47 Z M 2076.91 307.62 L 2064 305.4 L 2072.38 319.87 C 2073.89 315.73 2075.34 311.85 2076.91 307.65 L 2076.91 307.62 Z M 2023.42 305.37 L 2010.59 307.58 C 2012.13 311.78 2013.59 315.69 2015.08 319.82 L 2023.42 305.37 Z" style="fill: rgb(249, 250, 251);"/>
  <path class="cls-9" d="M 2043.75 337.93 C 2034.243 338.007 2028.218 327.764 2032.905 319.492 C 2037.592 311.221 2049.475 311.124 2054.295 319.319 C 2055.404 321.205 2055.993 323.352 2056 325.54 C 2056.067 332.356 2050.566 337.919 2043.75 337.93 Z" style="fill: rgb(249, 250, 251);"/>
  <path class="cls-21" d="M1715.28,1046.79,1761,964.44a15,15,0,0,1,25.26-1.6l26.35,35.94a15,15,0,0,0,23.2,1.26h0a15,15,0,0,1,23.7,2l28.43,43.9a15,15,0,0,1-12.61,23.2H1728.42A15,15,0,0,1,1715.28,1046.79Z" style="fill: rgb(55, 65, 81);"/>
  <path class="cls-21" d="M1805.43,926a18,18,0,1,1,18,18A18,18,0,0,1,1805.43,926Z" style="fill: rgb(55, 65, 81);"/>
  <path class="cls-8" d="M1888.43,765.63,1842.75,848a15,15,0,0,1-25.26,1.59l-26.35-35.94a15,15,0,0,0-23.2-1.25h0a15,15,0,0,1-23.7-2l-28.43-43.9a15,15,0,0,1,12.61-23.19h146.87A15,15,0,0,1,1888.43,765.63Z" style="fill: rgb(55, 65, 81);"/>
  <path class="cls-8" d="M1798.28,886.48a18,18,0,1,1-18-18A18,18,0,0,1,1798.28,886.48Z" style="fill: rgb(55, 65, 81);"/>
</svg>